<?xml version="1.0" ?><!-- Uploaded to: SVG Repo, www.svgrepo.com, Generator: SVG Repo Mixer Tools -->
<svg fill="#000000" width="800px" height="800px" viewBox="0 0 96 96" data-name="Your Icons" id="Your_Icons" xmlns="http://www.w3.org/2000/svg"><title/><path d="M12.87,34.72l-1-.46a29.61,29.61,0,0,1-3-1.6C6.86,31.39,5.26,28,5,27.32L4.24,25.7,6,25.42a8.7,8.7,0,0,1,6.22,2,4.5,4.5,0,0,1,1.31,6.38ZM7.23,27.41A10.45,10.45,0,0,0,9.94,31c.78.49,1.67,1,2.22,1.22.28-.68.46-1.94-1.15-3.16A7.74,7.74,0,0,0,7.23,27.41Z"/><path d="M16.9,34.85,16.21,34c-.92-1.19-1.87-4,1-6.44a8.65,8.65,0,0,1,6.12-2.26l1.77.2-.65,1.65c-.27.68-1.72,4.14-3.68,5.5a28.2,28.2,0,0,1-2.89,1.7Zm5.33-7.52a7.54,7.54,0,0,0-3.71,1.76c-1.55,1.29-1.32,2.54-1,3.21.56-.31,1.41-.79,2.17-1.31A10.52,10.52,0,0,0,22.23,27.33Z"/><path d="M13.14,44.54H11.66a1.74,1.74,0,0,1-1.73-1.73V37.7A1.74,1.74,0,0,1,11.66,36h1.48a1.73,1.73,0,0,1,1.73,1.73v5.11A1.73,1.73,0,0,1,13.14,44.54Zm-1.21-2h.94V38h-.94Z"/><path d="M18.27,44.54H16.79a1.74,1.74,0,0,1-1.73-1.73V37.7A1.74,1.74,0,0,1,16.79,36h1.48A1.74,1.74,0,0,1,20,37.7v5.11A1.74,1.74,0,0,1,18.27,44.54Zm-1.21-2H18V38h-.94Z"/><path d="M51.27,91.63c-22,0-39.87-17.41-39.87-38.81h2c0,20.3,17,36.81,37.87,36.81S89.14,73.12,89.14,52.82,72.15,16,51.27,16h-1V8.73L36.21,17l14.06,8.75V18.86h1c19.23,0,34.87,15.24,34.87,34S70.5,86.77,51.27,86.77,16.4,71.54,16.4,52.82h2c0,17.62,14.75,31.95,32.87,31.95S84.14,70.44,84.14,52.82c0-17.3-14.21-31.43-31.87-31.94v8.45L32.34,16.93,52.27,5.24V14c21.52.52,38.87,17.73,38.87,38.81C91.14,74.22,73.25,91.63,51.27,91.63Z"/><path d="M20.77,54.37H8.8V48.49h12Zm-10-2h8V50.49h-8Z"/><path d="M22.39,50.49H7.17V45.26a2.72,2.72,0,0,1,2.72-2.72h9.78a2.72,2.72,0,0,1,2.72,2.72Zm-13.22-2H20.39V45.26a.72.72,0,0,0-.72-.72H9.89a.72.72,0,0,0-.72.72Z"/></svg>